<svg width="13" height="16" viewBox="0 0 13 16" fill="none" xmlns="http://www.w3.org/2000/svg">
<path d="M3.73597 0.168145C3.59904 0.0618114 3.43322 0.00300558 3.26214 0.000112136C3.09107 -0.00278131 2.92348 0.0503853 2.78328 0.152031C2.64307 0.253677 2.53741 0.398612 2.48135 0.56617C2.42529 0.733729 2.4217 0.915355 2.4711 1.08515C2.6131 1.57624 2.62906 2.09722 2.5174 2.59666C2.40612 3.09314 2.17077 3.55053 1.835 3.92291C1.81262 3.94795 1.79173 3.97439 1.77245 4.00206C1.28827 4.69003 -1.44457 8.71762 1.008 13.0644L1.03237 13.1056C1.62814 14.0343 2.44413 14.7888 3.40208 15.2967C4.34849 15.799 5.404 16.0394 6.46638 15.9947C7.59602 16.0152 8.71155 15.7324 9.70452 15.1737C10.7148 14.6043 11.5656 13.7734 12.1742 12.7621C13.2311 10.9095 13.136 8.92561 12.6518 7.33832C12.1782 5.78219 11.287 4.46351 10.534 3.88417C10.4156 3.79336 10.2757 3.73758 10.1292 3.7228C9.98267 3.70802 9.83501 3.73479 9.70202 3.80026C9.56903 3.86573 9.4557 3.96742 9.37415 4.09448C9.2926 4.22154 9.2459 4.36917 9.23903 4.52162C9.1846 5.72661 8.94413 6.66972 8.594 7.41074C8.41365 5.38389 7.67845 3.87744 6.78727 2.75918C5.85547 1.58871 4.70433 0.822428 4.08773 0.411501C3.96853 0.334455 3.8515 0.253864 3.73678 0.169829L3.73597 0.168145Z" fill="currentColor"/>
</svg>
