<svg width="121" height="51" viewBox="0 0 121 51" fill="none" xmlns="http://www.w3.org/2000/svg">
<g filter="url(#filter0_dddd_1734_4200)">
<rect x="4" y="2" width="113" height="37" rx="18.5" fill="#FF4A75"/>
<rect x="4" y="2" width="113" height="37" rx="18.5" stroke="#F8F8F8" stroke-width="2"/>
<path d="M19.125 16.8542V10.6042V16.8542Z" fill="white"/>
<path d="M19.125 16.8542V10.6042" stroke="white" stroke-width="2" stroke-linecap="round" stroke-linejoin="round"/>
<path d="M24.9839 12.2639C26.0654 12.0869 27.172 12.1081 28.2485 12.3352C29.5693 12.6138 30.809 13.1898 31.8735 14.0198C32.9381 14.8499 33.7998 15.9121 34.3921 17.1252C34.9843 18.3384 35.2918 19.6708 35.2915 21.0208V25.7083C35.2915 26.443 35.2914 26.9692 35.2632 27.384C35.2352 27.7944 35.1816 28.0597 35.0923 28.2756C34.9604 28.5942 34.7667 28.8834 34.5229 29.1272C34.2792 29.371 33.9899 29.5646 33.6714 29.6965C33.4555 29.7859 33.1902 29.8395 32.7798 29.8674C32.365 29.8957 31.8387 29.8958 31.104 29.8958H26.4165C25.0665 29.896 23.7341 29.5886 22.521 28.9963C21.3078 28.4041 20.2456 27.5424 19.4155 26.4778C18.5856 25.4133 18.0096 24.1735 17.731 22.8528C17.5039 21.7763 17.4827 20.6696 17.6597 19.5881C17.9427 19.7398 18.2486 19.8492 18.5679 19.9075C19.166 20.0166 19.783 19.9476 20.3423 19.7092C20.9018 19.4706 21.379 19.0722 21.7144 18.5647C22.0497 18.0573 22.2288 17.4629 22.229 16.8547V16.8333H22.2505C22.8586 16.833 23.4531 16.6539 23.9604 16.3186C24.4679 15.9832 24.8664 15.5061 25.105 14.9465C25.3434 14.3873 25.4123 13.7702 25.3032 13.1721C25.2449 12.8529 25.1355 12.5469 24.9839 12.2639ZM26.4165 22.6038C26.0077 22.6038 25.6157 22.7668 25.3267 23.0559C25.0376 23.345 24.8746 23.7369 24.8745 24.1458C24.8745 24.5546 25.0376 24.9465 25.3267 25.2356C25.6157 25.5247 26.0077 25.6877 26.4165 25.6877H29.5415C29.9504 25.6877 30.3422 25.5247 30.6313 25.2356C30.9205 24.9465 31.0835 24.5546 31.0835 24.1458C31.0835 23.7369 30.9204 23.345 30.6313 23.0559C30.3422 22.7669 29.9503 22.6038 29.5415 22.6038H26.4165ZM23.2915 18.4377C22.8828 18.4378 22.4907 18.5999 22.2017 18.8889C21.9127 19.1779 21.7496 19.5701 21.7495 19.9788C21.7495 20.3876 21.9125 20.7805 22.2017 21.0696C22.4907 21.3586 22.8828 21.5207 23.2915 21.5208H29.5415C29.9502 21.5208 30.3423 21.3585 30.6313 21.0696C30.9205 20.7805 31.0835 20.3876 31.0835 19.9788C31.0834 19.5701 30.9204 19.1779 30.6313 18.8889C30.3423 18.6 29.9502 18.4377 29.5415 18.4377H23.2915Z" fill="white" stroke="white"/>
<path d="M16 13.7292H22.25H16Z" fill="white"/>
<path d="M16 13.7292H22.25" stroke="white" stroke-width="2" stroke-linecap="round" stroke-linejoin="round"/>
<path d="M54.2917 14.1719V15.7656H51.4636C51.4792 17.4219 52.4714 19.0234 54.7449 19.6875L53.7917 21.25C52.2214 20.7734 51.1355 19.8203 50.5105 18.5938C49.8777 20.0312 48.7214 21.1719 47.0105 21.7344L45.9949 20.1562C48.3542 19.4141 49.4167 17.5703 49.448 15.7656H46.5417V14.1719H54.2917ZM57.4949 13.2188V16.5156H59.4167V18.1406H57.4949V21.6562H55.4949V13.2188H57.4949ZM52.8386 21.9375C55.7917 21.9219 57.6355 22.9375 57.6355 24.6719C57.6355 26.4062 55.7917 27.4375 52.8386 27.4375C49.823 27.4375 47.9636 26.4062 47.9636 24.6719C47.9636 22.9375 49.823 21.9219 52.8386 21.9375ZM52.8386 23.4844C50.9636 23.4844 49.948 23.875 49.9636 24.6719C49.948 25.4844 50.9636 25.8906 52.8386 25.8906C54.6824 25.8906 55.6667 25.4844 55.6667 24.6719C55.6667 23.875 54.6824 23.4844 52.8386 23.4844ZM73.0574 24.1406V25.7344H60.0417V24.1406H65.4792V20.9219H67.4636V24.1406H73.0574ZM67.5261 15.0469C67.5261 17.0781 69.3542 19.2188 72.6042 19.7188L71.7605 21.375C69.2605 20.9219 67.4011 19.5859 66.4636 17.8125C65.5261 19.5781 63.6824 20.9297 61.198 21.375L60.3542 19.7188C63.573 19.2188 65.3855 17.0625 65.4011 15.0469V14.0312H67.5261V15.0469ZM89.8855 13.2188V27.4375H88.0105V13.2188H89.8855ZM86.8542 13.5312V26.8125H84.9949V20.2812H82.6667C81.8542 21.9062 80.5339 23.3125 78.5105 24.4844L77.3855 23.0781C80.2527 21.375 81.5183 19.3047 81.7917 16.5156H78.1667V14.9062H83.7761C83.7683 16.2578 83.6277 17.5312 83.2917 18.7031H84.9949V13.5312H86.8542ZM96.9167 16.4375C96.9167 19.0469 98.1042 21.6719 100.51 22.6875L99.3386 24.2812C97.7136 23.5469 96.5886 22.1328 95.948 20.375C95.2996 22.2891 94.1355 23.8359 92.4011 24.625L91.198 22.9688C93.6824 21.9219 94.8855 19.2031 94.9011 16.4375V14.3125H96.9167V16.4375ZM103.292 13.2188V27.4688H101.276V13.2188H103.292Z" fill="white"/>
</g>
<defs>
<filter id="filter0_dddd_1734_4200" x="0" y="0" width="121" height="51" filterUnits="userSpaceOnUse" color-interpolation-filters="sRGB">
<feFlood flood-opacity="0" result="BackgroundImageFix"/>
<feColorMatrix in="SourceAlpha" type="matrix" values="0 0 0 0 0 0 0 0 0 0 0 0 0 0 0 0 0 0 127 0" result="hardAlpha"/>
<feOffset/>
<feGaussianBlur stdDeviation="0.5"/>
<feColorMatrix type="matrix" values="0 0 0 0 0 0 0 0 0 0 0 0 0 0 0 0 0 0 0.1 0"/>
<feBlend mode="normal" in2="BackgroundImageFix" result="effect1_dropShadow_1734_4200"/>
<feColorMatrix in="SourceAlpha" type="matrix" values="0 0 0 0 0 0 0 0 0 0 0 0 0 0 0 0 0 0 127 0" result="hardAlpha"/>
<feOffset dy="2"/>
<feGaussianBlur stdDeviation="1"/>
<feColorMatrix type="matrix" values="0 0 0 0 0 0 0 0 0 0 0 0 0 0 0 0 0 0 0.09 0"/>
<feBlend mode="normal" in2="effect1_dropShadow_1734_4200" result="effect2_dropShadow_1734_4200"/>
<feColorMatrix in="SourceAlpha" type="matrix" values="0 0 0 0 0 0 0 0 0 0 0 0 0 0 0 0 0 0 127 0" result="hardAlpha"/>
<feOffset dy="4"/>
<feGaussianBlur stdDeviation="1.5"/>
<feColorMatrix type="matrix" values="0 0 0 0 0 0 0 0 0 0 0 0 0 0 0 0 0 0 0.05 0"/>
<feBlend mode="normal" in2="effect2_dropShadow_1734_4200" result="effect3_dropShadow_1734_4200"/>
<feColorMatrix in="SourceAlpha" type="matrix" values="0 0 0 0 0 0 0 0 0 0 0 0 0 0 0 0 0 0 127 0" result="hardAlpha"/>
<feOffset dy="8"/>
<feGaussianBlur stdDeviation="1.5"/>
<feColorMatrix type="matrix" values="0 0 0 0 0 0 0 0 0 0 0 0 0 0 0 0 0 0 0.01 0"/>
<feBlend mode="normal" in2="effect3_dropShadow_1734_4200" result="effect4_dropShadow_1734_4200"/>
<feBlend mode="normal" in="SourceGraphic" in2="effect4_dropShadow_1734_4200" result="shape"/>
</filter>
</defs>
</svg>
