<svg preserveAspectRatio="none" overflow="visible" style="display: block;" width="16" height="16" viewBox="0 0 16 16" fill="none" xmlns="http://www.w3.org/2000/svg">
<g id="pencil">
<path id="Vector" d="M8 4.76097L2 10.9203V14H14M2 14L5 14L11 7.84064M8 4.76097L10.1515 2.55234L10.1528 2.55103C10.4489 2.247 10.5973 2.09472 10.7683 2.03768C10.9189 1.98744 11.0812 1.98744 11.2318 2.03768C11.4027 2.09468 11.5509 2.24679 11.8466 2.55039L13.1515 3.88989C13.4485 4.19479 13.597 4.34731 13.6527 4.5231C13.7016 4.67774 13.7016 4.84431 13.6527 4.99894C13.5971 5.17461 13.4487 5.3269 13.1521 5.63136L13.1515 5.63202L11 7.84064M8 4.76097L11 7.84064" stroke="#767680" stroke-width="1.5" stroke-linecap="round" stroke-linejoin="round"/>
</g>
</svg>
